#tb 0: 1/25
0,          0,          0,        1,   599040, 0x154e6dd9
0,          1,          1,        1,   599040, 0xcce25693
0,          2,          2,        1,   599040, 0x3dd84e88
0,          3,          3,        1,   599040, 0xca197027
0,          4,          4,        1,   599040, 0xc9af0241
0,          5,          5,        1,   599040, 0x510470de
0,          6,          6,        1,   599040, 0xac8c0a7c
0,          7,          7,        1,   599040, 0x04cbed5e
0,          8,          8,        1,   599040, 0x514ce2f1
0,          9,          9,        1,   599040, 0xf37a4eec
0,         10,         10,        1,   599040, 0xabfd7f2f
0,         11,         11,        1,   599040, 0x944458a1
0,         12,         12,        1,   599040, 0xf4f81db2
0,         13,         13,        1,   599040, 0xdde236fb
0,         14,         14,        1,   599040, 0x6b0132be
0,         15,         15,        1,   599040, 0x641683a3
0,         16,         16,        1,   599040, 0x81d6be90
0,         17,         17,        1,   599040, 0xf1e04e55
0,         18,         18,        1,   599040, 0x63c4dc0a
0,         19,         19,        1,   599040, 0x47170db8
0,         20,         20,        1,   599040, 0xdc22f27b
0,         21,         21,        1,   599040, 0xd5b63800
0,         22,         22,        1,   599040, 0x07b76936
0,         23,         23,        1,   599040, 0x5215eee2
0,         24,         24,        1,   599040, 0xb5b2c9b1
0,         25,         25,        1,   599040, 0x79bee732
0,         26,         26,        1,   599040, 0x14c1f436
0,         27,         27,        1,   599040, 0x384f7f05
0,         28,         28,        1,   599040, 0x44229c42
0,         29,         29,        1,   599040, 0x5dea88e9
